<svg width="18" height="18" viewBox="0 0 18 18" fill="none" xmlns="http://www.w3.org/2000/svg">
<path d="M15.6665 9.00002C15.6665 5.31812 12.6817 2.33335 8.99984 2.33335C5.31794 2.33335 2.33317 5.31812 2.33317 9.00002C2.33317 12.6819 5.31794 15.6667 8.99984 15.6667C10.7679 15.6667 12.4636 14.9643 13.7139 13.7141C14.9641 12.4638 15.6665 10.7681 15.6665 9.00002ZM17.3332 9.00002C17.3332 13.6024 13.6022 17.3334 8.99984 17.3334C6.7897 17.3334 4.67008 16.4554 3.10728 14.8926C1.54448 13.3298 0.666504 11.2102 0.666504 9.00002C0.666504 6.78988 1.54448 4.67027 3.10728 3.10746C4.67008 1.54466 6.7897 0.666687 8.99984 0.666687C11.21 0.666687 13.3296 1.54466 14.8924 3.10746C16.4552 4.67027 17.3332 6.78988 17.3332 9.00002ZM7.33317 6.91669C7.33317 7.58335 6.74984 8.16669 6.08317 8.16669C5.4165 8.16669 4.83317 7.58335 4.83317 6.91669C4.83317 6.25002 5.4165 5.66669 6.08317 5.66669C6.74984 5.66669 7.33317 6.25002 7.33317 6.91669ZM13.1665 6.91669C13.1665 7.58335 12.5832 8.16669 11.9165 8.16669C11.2498 8.16669 10.6665 7.58335 10.6665 6.91669C10.6665 6.25002 11.2498 5.66669 11.9165 5.66669C12.5832 5.66669 13.1665 6.25002 13.1665 6.91669ZM8.99984 10.4584C7.5415 10.4584 6.25817 11.0667 5.50817 11.9667L6.6915 13.15C7.0665 12.55 7.95817 12.125 8.99984 12.125C10.0415 12.125 10.9332 12.55 11.3082 13.15L12.4915 11.9667C11.7415 11.0667 10.4582 10.4584 8.99984 10.4584Z" fill="#FF5D05"/>
</svg>
